<svg id='Chevron_Left_32' width='32' height='32' viewBox='0 0 32 32'
    xmlns='http://www.w3.org/2000/svg' xmlns:xlink='http://www.w3.org/1999/xlink'>
    <rect width='32' height='32' stroke='none' fill='#000000' opacity='0' />


    <g transform="matrix(1.17 0 0 1.17 16 16)">
        <path
            style="stroke: none; stroke-width: 1; stroke-dasharray: none; stroke-linecap: butt; stroke-dashoffset: 0; stroke-linejoin: miter; stroke-miterlimit: 4; fill: rgb(0,0,0); fill-rule: nonzero; opacity: 1;"
            transform=" translate(-13.5, -15)"
            d="M 17 3 L 19 3 C 19.386 3 19.738 3.223 19.904 3.572 C 20.07 3.9210000000000003 20.019 4.334 19.774 4.634 L 11.292 15 L 19.774 25.367 C 20.019000000000002 25.666 20.069000000000003 26.079 19.904 26.429000000000002 C 19.738999999999997 26.779000000000003 19.386 27 19 27 L 17 27 C 16.7 27 16.416 26.865 16.226 26.633 L 7.225999999999999 15.633 C 6.924999999999999 15.264 6.924999999999999 14.735 7.225999999999999 14.366 L 16.226 3.3659999999999997 C 16.416 3.135 16.7 3 17 3 z"
            stroke-linecap="round" />
    </g>
</svg>