<svg id='Twitter_32' width='32' height='32' viewBox='0 0 32 32' xmlns='http://www.w3.org/2000/svg' xmlns:xlink='http://www.w3.org/1999/xlink'><rect width='32' height='32' stroke='none' fill='#000000' opacity='0'/>


<g transform="matrix(1.08 0 0 1.08 16 16)" >
<path style="stroke: none; stroke-width: 1; stroke-dasharray: none; stroke-linecap: butt; stroke-dashoffset: 0; stroke-linejoin: miter; stroke-miterlimit: 4; fill: rgb(0,0,0); fill-rule: nonzero; opacity: 1;" transform=" translate(-15, -15)" d="M 28 6.937 C 27.043 7.362 26.015 7.648000000000001 24.936 7.777 C 26.038 7.117 26.883 6.072 27.281 4.8260000000000005 C 26.250999999999998 5.437 25.108999999999998 5.881 23.893 6.121 C 22.92 5.0840000000000005 21.534 4.436 20 4.436 C 17.054 4.436 14.666 6.824999999999999 14.666 9.77 C 14.666 10.187999999999999 14.714 10.596 14.804 10.985 C 10.371 10.763 6.441000000000001 8.639 3.809000000000001 5.411 C 3.351 6.199 3.088 7.115 3.088 8.094 C 3.088 9.943999999999999 4.029 11.577 5.46 12.533 C 4.586 12.504999999999999 3.763 12.264999999999999 3.044 11.866 C 3.044 11.889 3.044 11.91 3.044 11.933 C 3.044 14.518 4.882 16.674 7.323 17.163 C 6.876 17.285 6.404 17.35 5.917000000000001 17.35 C 5.574000000000001 17.35 5.239000000000001 17.316000000000003 4.914000000000001 17.255000000000003 C 5.593000000000001 19.374000000000002 7.563000000000001 20.917 9.897 20.96 C 8.072000000000001 22.391000000000002 5.772 23.244 3.2720000000000002 23.244 C 2.842 23.244 2.4170000000000003 23.219 1.9990000000000003 23.169 C 4.36 24.682000000000002 7.163 25.565 10.176 25.565 C 19.988 25.565 25.352 17.437 25.352 10.388000000000002 C 25.352 10.157000000000002 25.347 9.927000000000001 25.337 9.698000000000002 C 26.38 8.945 27.285 8.006 28 6.937 z" stroke-linecap="round" />
</g>
</svg>